#!OML:ASF H:\Male1\Project 1\Capture day 1\Session 1\Male1.ASF
:FULLY-SPECIFIED
:DEGREES
839
root 10.5461 14.154 3.29811 182.778 13.2992 -175.249
lowerback 26.8949 -0.4125 2.63016
upperback 13.1888 3.32407 -1.59581
thorax 0.0501561 3.18324 -4.0922
lowerneck 1.77526 10.1253 15.2236
upperneck -15.2241 12.9522 -23.0063
head -1.97271 7.37324 -9.7812
rclavicle 5.48646e-014 -3.26007e-014
rhumerus 11.5604 0.35286 -54.5897
rradius 127.255
rwrist -16.7511
rhand -32.5467 -4.61651
rfingers 7.12502
rthumb -5.77658 -34.5178
lclavicle 5.48646e-014 -3.26007e-014
lhumerus -2.75619 9.8135 45.8234
lradius 114.051
lwrist -12.8392
lhand -34.3318 20.5551
lfingers 7.12502
lthumb -7.49982 50.4022
rfemur -33.5765 -5.095 32.1003
rtibia 61.7099
rfoot -25.9922 -11.6338
rtoes -30.163
lfemur -39.1363 -13.9444 -15.5174
ltibia 62.0365
lfoot -25.2189 7.91244
ltoes 3.88084
840
root 10.4779 14.2114 3.32049 182.914 12.7987 -175.251
lowerback 26.7824 -0.525405 2.89376
upperback 13.192 3.24297 -1.51922
thorax 0.105084 3.15546 -4.13166
lowerneck 1.80894 10.0625 15.2956
upperneck -15.3483 12.8714 -23.0715
head -2.01832 7.34599 -9.83124
rclavicle 1.72943e-014 -3.97569e-015
rhumerus 11.4444 0.502076 -54.7203
rradius 127.166
rwrist -16.7515
rhand -32.4866 -4.70599
rfingers 7.12502
rthumb -5.71851 -34.6088
lclavicle 1.72943e-014 -3.97569e-015
lhumerus -2.81255 9.71737 45.7073
lradius 114.184
lwrist -12.779
lhand -34.2029 20.6304
lfingers 7.12502
lthumb -7.37544 50.4818
rfemur -32.8721 -5.61384 31.7862
rtibia 59.9172
rfoot -26.553 -11.4445
rtoes -28.3353
lfemur -39.2105 -13.9822 -15.7526
ltibia 61.2801
lfoot -24.0915 7.51461
ltoes 4.69188
841
root 10.4091 14.2738 3.34714 183.072 12.2825 -175.394
lowerback 26.6674 -0.627987 3.0293
upperback 13.1919 3.14294 -1.4857
thorax 0.152563 3.11313 -4.1406
lowerneck 1.82698 10.0016 15.3184
upperneck -15.5306 12.7886 -23.1435
head -2.08141 7.32468 -9.87843
rclavicle 5.58585e-014 -3.598e-014
rhumerus 11.3414 0.655285 -54.8549
rradius 127.086
rwrist -16.7452
rhand -32.4315 -4.80086
rfingers 7.12502
rthumb -5.66536 -34.7051
lclavicle 5.58585e-014 -3.598e-014
lhumerus -2.82234 9.69152 45.5786
lradius 114.318
lwrist -12.7186
lhand -34.0841 20.7097
lfingers 7.12502
lthumb -7.26072 50.5651
rfemur -32.2976 -6.08905 31.364
rtibia 58.2151
rfoot -26.8461 -11.4949
rtoes -27.0544
lfemur -39.3313 -13.9231 -16.137
ltibia 60.4507
lfoot -22.5343 7.42439
ltoes 2.55599
842
root 10.3403 14.3407 3.37812 183.249 11.7253 -175.704
lowerback 26.5471 -0.726355 3.02703
upperback 13.1914 3.01542 -1.50022
thorax 0.196238 3.05228 -4.11651
lowerneck 1.82042 9.93393 15.2801
upperneck -15.7567 12.6917 -23.22
head -2.15969 7.30307 -9.91955
rclavicle -2.127e-014 1.96797e-014
rhumerus 11.2407 0.789837 -54.9767
rradius 127.008
rwrist -16.714
rhand -32.3727 -4.87746
rfingers 7.12502
rthumb -5.60862 -34.7832
lclavicle -2.127e-014 1.96797e-014
lhumerus -2.7737 9.72489 45.441
lradius 114.446
lwrist -12.6461
lhand -33.9959 20.7612
lfingers 7.12502
lthumb -7.17564 50.6196
rfemur -31.8564 -6.42136 30.7911
rtibia 56.6226
rfoot -26.8857 -11.8323
rtoes -26.4315
lfemur -39.5208 -13.7562 -16.6977
ltibia 59.5828
lfoot -20.7235 7.43701
ltoes -2.14086
843
root 10.2729 14.4114 3.41305 183.462 11.1091 -176.022
lowerback 26.4199 -0.838997 3.00706
upperback 13.1948 2.86685 -1.51341
thorax 0.24478 2.98071 -4.07541
lowerneck 1.79153 9.86104 15.1681
upperneck -16.0057 12.5838 -23.2846
head -2.24948 7.28109 -9.94578
rclavicle 4.17448e-015 -9.14409e-015
rhumerus 11.1405 0.908037 -55.0792
rradius 126.928
rwrist -16.6631
rhand -32.3039 -4.92414
rfingers 7.12502
rthumb -5.54211 -34.8317
lclavicle 4.17448e-015 -9.14409e-015
lhumerus -2.67516 9.80697 45.3061
lradius 114.56
lwrist -12.568
lhand -33.9462 20.7319
lfingers 7.12502
lthumb -7.12762 50.5919
rfemur -31.4995 -6.51631 30.219
rtibia 55.1124
rfoot -26.6925 -12.4801
rtoes -26.5051
lfemur -39.8055 -13.4313 -17.2517
ltibia 58.7455
lfoot -18.9125 7.16974
ltoes -7.81867
844
root 10.2037 14.4847 3.45103 183.697 10.4012 -176.465
lowerback 26.2802 -0.977155 2.91649
upperback 13.1937 2.6673 -1.56249
thorax 0.288972 2.88125 -4.02065
lowerneck 1.75446 9.7819 14.987
upperneck -16.2651 12.4657 -23.3168
head -2.35102 7.2569 -9.95118
rclavicle -1.53064e-014 1.19271e-014
rhumerus 11.0253 1.0016 -55.1731
rradius 126.849
rwrist -16.6102
rhand -32.2366 -4.95054
rfingers 7.12502
rthumb -5.47716 -34.8598
lclavicle -1.53064e-014 1.19271e-014
lhumerus -2.51246 9.90891 45.196
lradius 114.633
lwrist -12.512
lhand -33.9489 20.6173
lfingers 7.12502
lthumb -7.13028 50.4772
rfemur -31.2444 -6.45565 29.4893
rtibia 53.6958
rfoot -26.3408 -13.2713
rtoes -26.9057
lfemur -40.1887 -12.9953 -17.9255
ltibia 57.954
lfoot -17.2918 6.44764
ltoes -13.0803
845
root 10.1344 14.558 3.49061 183.956 9.60535 -176.822
lowerback 26.14 -1.15098 2.91502
upperback 13.1943 2.44463 -1.58735
thorax 0.335431 2.77473 -3.98522
lowerneck 1.71786 9.69548 14.7596
upperneck -16.5156 12.3384 -23.3117
head -2.4587 7.22809 -9.93699
rclavicle 1.27222e-014 -9.54166e-015
rhumerus 10.8804 1.06566 -55.2576
rradius 126.776
rwrist -16.5778
rhand -32.1703 -4.99507
rfingers 7.12502
rthumb -5.41313 -34.9059
lclavicle 1.27222e-014 -9.54166e-015
lhumerus -2.27216 9.94442 45.065
lradius 114.66
lwrist -12.4534
lhand -34.0208 20.5411
lfingers 7.12502
lthumb -7.19967 50.3986
rfemur -31.0082 -6.24767 28.8207
rtibia 52.3271
rfoot -25.8127 -14.2666
rtoes -27.9376
lfemur -40.6473 -12.401 -18.4758
ltibia 57.2555
lfoot -16.1423 5.25133
ltoes -17.6127
846
root 10.0621 14.6304 3.53036 184.229 8.73638 -177.126
lowerback 25.9872 -1.35155 3.0058
upperback 13.1952 2.20901 -1.59802
thorax 0.389131 2.66657 -3.98394
lowerneck 1.66559 9.59573 14.4902
upperneck -16.7235 12.1952 -23.2523
head -2.56252 7.18738 -9.89525
rclavicle -2.14687e-014 2.82274e-014
rhumerus 10.6916 1.08477 -55.3148
rradius 126.708
rwrist -16.5659
rhand -32.0922 -5.09408
rfingers 7.12502
rthumb -5.33777 -35.0069
lclavicle -2.14687e-014 2.82274e-014
lhumerus -1.96886 9.87274 44.9347
lradius 114.679
lwrist -12.3835
lhand -34.1422 20.5482
lfingers 7.12502
lthumb -7.31681 50.4017
rfemur -30.7932 -5.99884 28.1512
rtibia 51.0094
rfoot -25.1924 -15.2082
rtoes -28.9175
lfemur -41.137 -11.6887 -18.9249
ltibia 56.6404
lfoot -15.1486 3.58886
ltoes -20.5537
847
root 9.98704 14.6991 3.56879 184.487 7.85775 -177.349
lowerback 25.8385 -1.54205 3.18442
upperback 13.194 2.00755 -1.5852
thorax 0.4428 2.57956 -4.01657
lowerneck 1.59004 9.46974 14.2138
upperneck -16.8648 12.0209 -23.1494
head -2.65334 7.12409 -9.83398
rclavicle -1.05356e-014 6.55989e-015
rhumerus 10.4364 1.03452 -55.3448
rradius 126.641
rwrist -16.5469
rhand -31.9808 -5.24014
rfingers 7.12502
rthumb -5.23014 -35.1556
lclavicle -1.05356e-014 6.55989e-015
lhumerus -1.57922 9.67236 44.8059
lradius 114.683
lwrist -12.2821
lhand -34.3098 20.6393
lfingers 7.12502
lthumb -7.4786 50.4871
rfemur -30.551 -5.74443 27.5273
rtibia 49.7228
rfoot -24.6302 -15.9934
rtoes -29.3294
lfemur -41.5982 -10.86 -19.2117
ltibia 56.1174
lfoot -14.497 1.83624
ltoes -23.6705
848
root 9.90871 14.7615 3.60469 184.704 7.03125 -177.491
lowerback 25.7049 -1.70304 3.40085
upperback 13.1916 1.85391 -1.54988
thorax 0.491817 2.51773 -4.0591
lowerneck 1.50039 9.33053 13.9702
upperneck -16.9436 11.8327 -23.0381
head -2.72414 7.04697 -9.77072
rclavicle 1.45113e-014 -1.88845e-015
rhumerus 10.1423 0.955778 -55.3675
rradius 126.564
rwrist -16.4822
rhand -31.8483 -5.4098
rfingers 7.12502
rthumb -5.10221 -35.3284
lclavicle 1.45113e-014 -1.88845e-015
lhumerus -1.15615 9.39405 44.6653
lradius 114.693
lwrist -12.1507
lhand -34.4801 20.7815
lfingers 7.12502
lthumb -7.64299 50.6234
rfemur -30.25 -5.5199 26.9642
rtibia 48.475
rfoot -24.1491 -16.6441
rtoes -29.374
lfemur -41.967 -9.97524 -19.2732
ltibia 55.6807
lfoot -14.2652 0.178749
ltoes -25.9651
849
root 9.8264 14.8184 3.63716 184.854 6.3011 -177.58
lowerback 25.6014 -1.82579 3.60643
upperback 13.1854 1.74806 -1.50987
thorax 0.526274 2.47877 -4.10359
lowerneck 1.40492 9.19399 13.784
upperneck -16.9686 11.6514 -22.938
head -2.77149 6.96644 -9.71557
rclavicle -3.18055e-015 1.59028e-015
rhumerus 9.82343 0.888896 -55.4017
rradius 126.476
rwrist -16.3525
rhand -31.7663 -5.58738
rfingers 7.12502
rthumb -5.02307 -35.5078
lclavicle -3.18055e-015 1.59028e-015
lhumerus -0.744931 9.09405 44.5121
lradius 114.723
lwrist -12.0111
lhand -34.6021 20.9314
lfingers 7.12502
lthumb -7.7607 50.769
rfemur -29.8767 -5.32978 26.423
rtibia 47.2736
rfoot -23.8118 -17.0681
rtoes -28.7698
lfemur -42.1872 -9.11483 -19.0818
ltibia 55.3201
lfoot -14.4118 -1.04148
ltoes -27.4705
850
root 9.73925 14.8705 3.66589 184.932 5.68587 -177.666
lowerback 25.5319 -1.9067 3.75411
upperback 13.1724 1.68293 -1.48011
thorax 0.53996 2.4565 -4.13775
lowerneck 1.30517 9.07057 13.6538
upperneck -16.9506 11.4898 -22.8649
head -2.79524 6.89065 -9.67357
rclavicle -1.87852e-014 1.85367e-014
rhumerus 9.49742 0.821838 -55.4218
rradius 126.388
rwrist -16.2175
rhand -31.7732 -5.76205
rfingers 7.12502
rthumb -5.02979 -35.6824
lclavicle -1.87852e-014 1.85367e-014
lhumerus -0.364786 8.81516 44.3709
lradius 114.766
lwrist -11.9078
lhand -34.6748 21.0519
lfingers 7.12502
lthumb -7.83088 50.8869
rfemur -29.4448 -5.18487 25.8571
rtibia 46.129
rfoot -23.5745 -17.3167
rtoes -27.7705
lfemur -42.2367 -8.36947 -18.6282
ltibia 55.0238
lfoot -14.8122 -1.57496
ltoes -27.8825
851
root 9.64645 14.9186 3.69085 184.945 5.17662 -177.771
lowerback 25.49 -1.95624 3.82373
upperback 13.1491 1.6379 -1.46207
thorax 0.529488 2.43839 -4.14653
lowerneck 1.20611 8.9746 13.5479
upperneck -16.8996 11.3656 -22.8091
head -2.79896 6.83012 -9.63634
rclavicle -9.29318e-015 9.93923e-017
rhumerus 9.18043 0.797794 -55.4546
rradius 126.31
rwrist -16.0726
rhand -31.827 -5.89326
rfingers 7.12502
rthumb -5.08165 -35.8123
lclavicle -9.29318e-015 9.93923e-017
lhumerus -0.055899 8.59112 44.2493
lradius 114.822
lwrist -11.8738
lhand -34.7017 21.0776
lfingers 7.12502
lthumb -7.85689 50.9116
rfemur -28.976 -5.09644 25.2551
rtibia 45.0528
rfoot -23.3179 -17.5289
rtoes -27.0097
lfemur -42.119 -7.801 -17.9019
ltibia 54.7717
lfoot -15.265 -1.30269
ltoes -27.1735
852
root 9.54767 14.9629 3.71187 184.904 4.75082 -177.89
lowerback 25.4613 -1.99242 3.82384
upperback 13.1174 1.59025 -1.45692
thorax 0.50204 2.41357 -4.12993
lowerneck 1.12268 8.91515 13.4446
upperneck -16.8409 11.2908 -22.7456
head -2.79421 6.79176 -9.59407
rclavicle 3.62285e-014 -2.09718e-014
rhumerus 8.90115 0.807087 -55.5039
rradius 126.244
rwrist -15.9499
rhand -31.8923 -5.96899
rfingers 7.12502
rthumb -5.14477 -35.8865
lclavicle 3.62285e-014 -2.09718e-014
lhumerus 0.141446 8.48042 44.1587
lradius 114.895
lwrist -11.924
lhand -34.6741 20.95
lfingers 7.12502
lthumb -7.83024 50.785
rfemur -28.4817 -5.05236 24.6279
rtibia 44.0568
rfoot -23.0587 -17.7279
rtoes -26.4202
lfemur -41.8413 -7.42696 -16.9015
ltibia 54.5379
lfoot -15.5871 -0.25142
ltoes -25.6015
853
root 9.4433 15.0023 3.72877 184.82 4.38876 -178.021
lowerback 25.4333 -2.0238 3.76974
upperback 13.0798 1.53202 -1.4687
thorax 0.466133 2.37946 -4.09854
lowerneck 1.05909 8.8864 13.3376
upperneck -16.7934 11.2576 -22.655
head -2.79083 6.77217 -9.54147
rclavicle -1.43125e-014 1.78409e-014
rhumerus 8.66236 0.828091 -55.5666
rradius 126.192
rwrist -15.8577
rhand -31.9476 -6.00525
rfingers 7.12502
rthumb -5.1981 -35.9215
lclavicle -1.43125e-014 1.78409e-014
lhumerus 0.223981 8.48606 44.0826
lradius 114.977
lwrist -12.0371
lhand -34.6178 20.7365
lfingers 7.12502
lthumb -7.77585 50.5735
rfemur -27.9764 -5.00961 23.9743
rtibia 43.1539
rfoot -22.7035 -18.0192
rtoes -26.5074
lfemur -41.41 -7.2206 -15.6614
ltibia 54.2903
lfoot -15.6669 1.42811
ltoes -23.5481
